<?xml version="1.0" encoding="UTF-8" standalone="no"?>
<!-- Created with Inkscape (http://www.inkscape.org/) -->
<svg
   xmlns:dc="http://purl.org/dc/elements/1.1/"
   xmlns:cc="http://creativecommons.org/ns#"
   xmlns:rdf="http://www.w3.org/1999/02/22-rdf-syntax-ns#"
   xmlns:svg="http://www.w3.org/2000/svg"
   xmlns="http://www.w3.org/2000/svg"
   xmlns:xlink="http://www.w3.org/1999/xlink"
   xmlns:sodipodi="http://sodipodi.sourceforge.net/DTD/sodipodi-0.dtd"
   xmlns:inkscape="http://www.inkscape.org/namespaces/inkscape"
   width="320"
   height="100"
   id="svg6632"
   sodipodi:version="0.32"
   inkscape:version="0.46"
   version="1.0"
   sodipodi:docbase="/home/kwwii/Desktop/Human"
   sodipodi:docname="boundingbox.svg"
   inkscape:output_extension="org.inkscape.output.svg.inkscape">
  <defs
     id="defs6634">
    <linearGradient
       id="linearGradient3198">
      <stop
         style="stop-color:#400000;stop-opacity:0.40944883;"
         offset="0"
         id="stop3200" />
      <stop
         style="stop-color:#be8140;stop-opacity:0;"
         offset="1"
         id="stop3202" />
    </linearGradient>
    <linearGradient
       inkscape:collect="always"
       id="linearGradient3188">
      <stop
         style="stop-color:#ffffff;stop-opacity:0.19823788"
         offset="0"
         id="stop3190" />
      <stop
         style="stop-color:#ffffff;stop-opacity:0;"
         offset="1"
         id="stop3192" />
    </linearGradient>
    <linearGradient
       id="linearGradient3581">
      <stop
         style="stop-color:#310000;stop-opacity:1;"
         offset="0"
         id="stop3583" />
      <stop
         style="stop-color:#561c1c;stop-opacity:1;"
         offset="1"
         id="stop3585" />
    </linearGradient>
    <linearGradient
       inkscape:collect="always"
       xlink:href="#linearGradient3581"
       id="linearGradient2505"
       gradientUnits="userSpaceOnUse"
       gradientTransform="matrix(1.3125,0,0,1.3125,-680.37833,-595.21875)"
       x1="639.2876"
       y1="526.08618"
       x2="639.2876"
       y2="458.27664" />
    <linearGradient
       inkscape:collect="always"
       xlink:href="#linearGradient3188"
       id="linearGradient3194"
       x1="160"
       y1="-55"
       x2="160"
       y2="30"
       gradientUnits="userSpaceOnUse"
       gradientTransform="translate(0,62)" />
    <radialGradient
       inkscape:collect="always"
       xlink:href="#linearGradient3198"
       id="radialGradient3204"
       cx="158.6875"
       cy="204.96588"
       fx="158.6875"
       fy="204.96588"
       r="147"
       gradientTransform="matrix(1.504386,0,0,0.4353742,-80.039762,22.544391)"
       gradientUnits="userSpaceOnUse" />
  </defs>
  <sodipodi:namedview
     id="base"
     pagecolor="#ffffff"
     bordercolor="#666666"
     borderopacity="1.0"
     gridtolerance="10000"
     guidetolerance="10"
     objecttolerance="10"
     inkscape:pageopacity="0.0"
     inkscape:pageshadow="2"
     inkscape:zoom="1"
     inkscape:cx="147"
     inkscape:cy="95"
     inkscape:document-units="px"
     inkscape:current-layer="layer2"
     width="302px"
     height="92px"
     inkscape:window-width="1919"
     inkscape:window-height="1127"
     inkscape:window-x="1"
     inkscape:window-y="48"
     showgrid="false">
    <inkscape:grid
       type="xygrid"
       id="grid2454"
       dotted="true"
       visible="true"
       enabled="true" />
  </sodipodi:namedview>
  <metadata
     id="metadata6637">
    <rdf:RDF>
      <cc:Work
         rdf:about="">
        <dc:format>image/svg+xml</dc:format>
        <dc:type
           rdf:resource="http://purl.org/dc/dcmitype/StillImage" />
      </cc:Work>
    </rdf:RDF>
  </metadata>
  <g
     inkscape:groupmode="layer"
     id="layer2"
     inkscape:label="2"
     style="display:inline">
    <path
       style="opacity:0.12999998;fill:#310000;fill-opacity:1;stroke:none;stroke-width:0;stroke-miterlimit:4;stroke-dasharray:none;stroke-opacity:1;display:inline"
       d="M 306.06249,9.374624 C 306.45064,10.086118 306.68748,10.910197 306.68748,11.78087 L 306.68748,89.78088 C 306.68748,92.55087 304.4575,94.78088 301.68749,94.78088 L 13.68746,94.78088 C 12.81927,94.78088 12.02254,94.51072 11.31247,94.12463 C 12.15517,95.69032 13.77805,96.78088 15.68748,96.78088 L 303.68749,96.78088 C 306.45748,96.78088 308.68749,94.55087 308.68749,91.78088 L 308.68749,13.780871 C 308.68749,11.873926 307.62483,10.218326 306.06249,9.374624 z"
       id="path4798" />
    <path
       style="opacity:0.34439835;fill:#ffffff;fill-opacity:1;stroke:none;stroke-width:0;stroke-miterlimit:4;stroke-dasharray:none;stroke-opacity:1;display:inline"
       d="M 11.90975,93.787204 C 11.5257,93.092636 11.29136,92.288151 11.29136,91.438177 L 11.29136,13.208198 C 11.29136,10.504064 13.49777,8.327087 16.23848,8.327087 L 304.19275,8.327087 C 305.05175,8.327087 305.84005,8.590816 306.54261,8.967742 C 305.70883,7.439271 304.10312,6.374643 302.21389,6.374643 L 14.25963,6.374643 C 11.51892,6.374643 9.31251,8.55162 9.31251,11.255754 L 9.31251,89.485728 C 9.31251,91.347346 10.36392,92.96356 11.90975,93.787204 z"
       id="path3751"
       sodipodi:nodetypes="ccccccccccc" />
    <rect
       style="fill:none;fill-opacity:1;fill-rule:nonzero;stroke:url(#linearGradient2505);stroke-width:0.5;stroke-linecap:butt;stroke-linejoin:miter;marker:none;marker-start:none;marker-mid:none;marker-end:none;stroke-miterlimit:4;stroke-dasharray:none;stroke-dashoffset:0;stroke-opacity:0.48469388;visibility:visible;display:inline;overflow:visible;enable-background:accumulate"
       id="rect4800"
       width="298.00003"
       x="9.6866531"
       y="6.7693415"
       ry="5.0000005"
       height="88.000008"
       rx="5.0000005" />
    <path
       style="opacity:0.05;fill:#310000;fill-opacity:1;fill-rule:nonzero;stroke:none;stroke-width:0;stroke-linecap:butt;stroke-linejoin:miter;marker:none;marker-start:none;marker-mid:none;marker-end:none;stroke-miterlimit:4;stroke-dasharray:none;stroke-dashoffset:0;stroke-opacity:1;visibility:visible;display:inline;overflow:visible;enable-background:accumulate"
       d="M 11.90972,87.23465 C 11.52567,86.5683 11.29134,85.79651 11.29134,84.98108 L 11.29134,12.93045 C 11.29134,10.336215 13.49774,8.247713 16.23845,8.247713 L 301.19273,8.247713 C 302.05173,8.247713 302.84003,8.500723 303.54259,8.86233 C 302.70881,7.395979 301.1031,6.374618 299.21387,6.374618 L 14.25961,6.374618 C 11.5189,6.374618 9.31248,8.46312 9.31248,11.057355 L 9.31248,83.10799 C 9.31248,84.89395 10.3639,86.44448 11.90972,87.23465 z"
       id="path4806"
       sodipodi:nodetypes="ccccccccccc" />
    <path
       style="fill:url(#linearGradient3194);fill-opacity:1;fill-rule:nonzero;stroke:#ffffff;stroke-width:1;stroke-linecap:butt;stroke-linejoin:miter;marker:none;stroke-miterlimit:4;stroke-dasharray:none;stroke-dashoffset:0;stroke-opacity:0.17621143;visibility:visible;display:inline;overflow:visible;enable-background:accumulate"
       d="M 14.6875,8.78125 L 302.6875,8.78125 C 304.3841,8.78125 305.6875,10.084655 305.6875,11.78125 L 305.6875,89.78125 C 305.6875,91.477841 304.38409,92.78125 302.6875,92.78125 L 14.6875,92.78125 C 12.990906,92.78125 11.6875,91.477845 11.6875,89.78125 L 11.6875,11.78125 C 11.6875,10.084656 12.990905,8.78125 14.6875,8.78125 z"
       id="rect2406" />
    <path
       style="opacity:0.27385894;fill:url(#radialGradient3204);fill-opacity:1;fill-rule:nonzero;stroke:none;stroke-width:1;stroke-linecap:butt;stroke-linejoin:miter;marker:none;stroke-miterlimit:4;stroke-dasharray:none;stroke-dashoffset:0;stroke-opacity:0.17621143;visibility:visible;display:inline;overflow:visible;enable-background:accumulate"
       d="M 14.6875,8.78125 L 302.6875,8.78125 C 304.3841,8.78125 305.6875,10.084655 305.6875,11.78125 L 305.6875,89.78125 C 305.6875,91.477841 304.38409,92.78125 302.6875,92.78125 L 14.6875,92.78125 C 12.990906,92.78125 11.6875,91.477845 11.6875,89.78125 L 11.6875,11.78125 C 11.6875,10.084656 12.990905,8.78125 14.6875,8.78125 z"
       id="path3196" />
  </g>
</svg>
